<svg width="180" height="42" viewBox="0 0 180 42" fill="none" xmlns="http://www.w3.org/2000/svg">
<g clip-path="url(#clip0_6171_16150)">
<path d="M171.492 34.0098C176.707 33.7601 178.111 27.4844 175.58 24.255C175.62 24.0053 175.634 23.7557 175.65 23.506C181.809 22.5571 181.776 11.7535 175.031 11.9533C174.284 11.97 173.538 11.97 172.775 12.0033C177.233 9.57294 176.465 0.800305 170.356 0.983415C117.271 2.54818 64.2021 4.11294 11.0683 5.67771C5.23681 5.87746 5.00844 15.0995 9.95172 16.9972C7.95233 16.9972 5.95295 16.9972 3.95356 16.9806C-1.75604 16.9306 -1.69984 28.2668 3.95356 28.6164C11.0683 28.9992 18.1831 29.3488 25.2978 29.6318C22.8479 29.7483 20.398 29.8649 17.9064 29.9814C11.8073 30.3309 11.7641 41.9667 17.9064 41.6172C70.5272 39.087 123.129 36.5401 171.511 34.0098H171.492Z" fill="#f47d09"/>
</g>
<defs>
<clipPath id="clip0_6171_16150">
<rect width="180" height="41" fill="white" transform="translate(0 0.818359)"/>
</clipPath>
</defs>
</svg>